<svg xmlns="http://www.w3.org/2000/svg" viewBox="0 0 100 100" width="100" height="100">
  <!-- Mars circle with red-orange gradient -->
  <circle cx="50" cy="50" r="45" fill="url(#marsGradient)" />
  
  <!-- Gradient definition -->
  <defs>
    <linearGradient id="marsGradient" x1="0%" y1="0%" x2="100%" y2="100%">
      <stop offset="0%" stop-color="#c1440e" />
      <stop offset="100%" stop-color="#e86c34" />
    </linearGradient>
  </defs>
  
  <!-- Surface features (simplified craters and Valles Marineris) -->
  <path d="M30,30 Q35,35 40,30 T50,35 T60,30 Q65,35 70,30" stroke="#9e3609" fill="none" stroke-width="2" />
  <path d="M35,45 Q40,50 45,45 T55,50 T65,45" stroke="#9e3609" fill="none" stroke-width="2" />
  <path d="M40,60 Q45,65 50,60 T60,65 T70,60" stroke="#9e3609" fill="none" stroke-width="2" />
  
  <!-- Polar cap -->
  <circle cx="50" cy="15" r="10" fill="#f9e7d2" opacity="0.8" />
  
  <!-- Mars symbol -->
  <circle cx="50" cy="50" r="18" stroke="white" fill="none" stroke-width="3" />
  <path d="M68,32 L72,28 M72,28 L78,34 M78,34 L74,38" stroke="white" fill="none" stroke-width="3" />
  <line x1="68" y1="32" x2="78" y2="42" stroke="white" stroke-width="3" />
</svg>